HIERARCHY
ROOT Hips
{
	OFFSET -14.64140 90.27770 -84.91600
	CHANNELS 6 Xposition Yposition Zposition Zrotation Xrotation Yrotation
	JOINT Spine
	{
		OFFSET 0.00000 13.20850 -1.60436
		CHANNELS 3 Zrotation Xrotation Yrotation
		JOINT Spine1
		{
			OFFSET 0.00000 8.61716 0.00000
			CHANNELS 3 Zrotation Xrotation Yrotation
			JOINT Spine2
			{
				OFFSET 0.00000 8.61717 0.00000
				CHANNELS 3 Zrotation Xrotation Yrotation
				JOINT Spine3
				{
					OFFSET 0.00000 8.61717 0.00000
					CHANNELS 3 Zrotation Xrotation Yrotation
					JOINT Neck
					{
						OFFSET 0.00000 11.07920 1.10792
						CHANNELS 3 Zrotation Xrotation Yrotation
						JOINT Neck1
						{
							OFFSET 0.00000 7.08032 0.00000
							CHANNELS 3 Zrotation Xrotation Yrotation
							JOINT Head
							{
								OFFSET 0.00000 7.08031 0.00000
								CHANNELS 3 Zrotation Xrotation Yrotation
								End site
								{
									OFFSET 0.00000 0.00000 0.00000
								}
							}
						}
					}
					JOINT RightShoulder
					{
						OFFSET -0.01000 7.91373 5.19711
						CHANNELS 3 Zrotation Xrotation Yrotation
						JOINT RightArm
						{
							OFFSET -18.41580 0.00000 0.00000
							CHANNELS 3 Zrotation Xrotation Yrotation
							JOINT RightForeArm
							{
								OFFSET -29.11090 0.00000 0.00000
								CHANNELS 3 Zrotation Xrotation Yrotation
								JOINT RightHand
								{
									OFFSET -24.65040 0.00000 0.00000
									CHANNELS 3 Zrotation Xrotation Yrotation
									JOINT RightHandThumb1
									{
										OFFSET -5.35114 -0.85590 3.97906
										CHANNELS 3 Zrotation Xrotation Yrotation
										JOINT RightHandThumb2
										{
											OFFSET -4.52789 0.00000 0.00000
											CHANNELS 3 Zrotation Xrotation Yrotation
											JOINT RightHandThumb3
											{
												OFFSET -2.46976 0.00000 0.00000
												CHANNELS 3 Zrotation Xrotation Yrotation
												End site
												{
													OFFSET 0.00000 0.00000 0.00000
												}
											}
										}
									}
									JOINT RightHandIndex1
									{
										OFFSET -14.26970 0.00000 2.88139
										CHANNELS 3 Zrotation Xrotation Yrotation
										JOINT RightHandIndex2
										{
											OFFSET -5.48836 0.00000 0.00000
											CHANNELS 3 Zrotation Xrotation Yrotation
											JOINT RightHandIndex3
											{
												OFFSET -3.01859 0.00000 0.00000
												CHANNELS 3 Zrotation Xrotation Yrotation
												End site
												{
													OFFSET 0.00000 0.00000 0.00000
												}
											}
										}
									}
									JOINT RightHandMiddle1
									{
										OFFSET -14.26970 0.00000 -0.09147
										CHANNELS 3 Zrotation Xrotation Yrotation
										JOINT RightHandMiddle2
										{
											OFFSET -6.17441 0.00000 0.00000
											CHANNELS 3 Zrotation Xrotation Yrotation
											JOINT RightHandMiddle3
											{
												OFFSET -3.56743 0.00000 0.00000
												CHANNELS 3 Zrotation Xrotation Yrotation
												End site
												{
													OFFSET 0.00000 0.00000 0.00000
												}
											}
										}
									}
									JOINT RightHandRing1
									{
										OFFSET -12.69180 0.00000 -3.06433
										CHANNELS 3 Zrotation Xrotation Yrotation
										JOINT RightHandRing2
										{
											OFFSET -5.62556 0.00000 0.00000
											CHANNELS 3 Zrotation Xrotation Yrotation
											JOINT RightHandRing3
											{
												OFFSET -3.56744 0.00000 0.00000
												CHANNELS 3 Zrotation Xrotation Yrotation
												End site
												{
													OFFSET 0.00000 0.00000 0.00000
												}
											}
										}
									}
									JOINT RightHandPinky1
									{
										OFFSET -11.11390 0.00000 -6.03719
										CHANNELS 3 Zrotation Xrotation Yrotation
										JOINT RightHandPinky2
										{
											OFFSET -4.52789 0.00000 0.00000
											CHANNELS 3 Zrotation Xrotation Yrotation
											JOINT RightHandPinky3
											{
												OFFSET -2.46976 0.00000 0.00000
												CHANNELS 3 Zrotation Xrotation Yrotation
												End site
												{
													OFFSET 0.00000 0.00000 0.00000
												}
											}
										}
									}
								}
							}
						}
					}
					JOINT LeftShoulder
					{
						OFFSET 0.01000 7.91373 5.19711
						CHANNELS 3 Zrotation Xrotation Yrotation
						JOINT LeftArm
						{
							OFFSET 18.41580 0.00000 0.00000
							CHANNELS 3 Zrotation Xrotation Yrotation
							JOINT LeftForeArm
							{
								OFFSET 29.11090 0.00000 0.00000
								CHANNELS 3 Zrotation Xrotation Yrotation
								JOINT LeftHand
								{
									OFFSET 24.65040 0.00000 0.00000
									CHANNELS 3 Zrotation Xrotation Yrotation
									JOINT LeftHandThumb1
									{
										OFFSET 5.35114 -0.85590 3.97906
										CHANNELS 3 Zrotation Xrotation Yrotation
										JOINT LeftHandThumb2
										{
											OFFSET 4.52789 0.00000 0.00000
											CHANNELS 3 Zrotation Xrotation Yrotation
											JOINT LeftHandThumb3
											{
												OFFSET 2.46977 0.00000 0.00000
												CHANNELS 3 Zrotation Xrotation Yrotation
												End site
												{
													OFFSET 0.00000 0.00000 0.00000
												}
											}
										}
									}
									JOINT LeftHandIndex1
									{
										OFFSET 14.26970 0.00000 2.88139
										CHANNELS 3 Zrotation Xrotation Yrotation
										JOINT LeftHandIndex2
										{
											OFFSET 5.48836 0.00000 0.00000
											CHANNELS 3 Zrotation Xrotation Yrotation
											JOINT LeftHandIndex3
											{
												OFFSET 3.01859 0.00000 0.00000
												CHANNELS 3 Zrotation Xrotation Yrotation
												End site
												{
													OFFSET 0.00000 0.00000 0.00000
												}
											}
										}
									}
									JOINT LeftHandMiddle1
									{
										OFFSET 14.26970 0.00000 -0.09147
										CHANNELS 3 Zrotation Xrotation Yrotation
										JOINT LeftHandMiddle2
										{
											OFFSET 6.17440 0.00000 0.00000
											CHANNELS 3 Zrotation Xrotation Yrotation
											JOINT LeftHandMiddle3
											{
												OFFSET 3.56744 0.00000 0.00000
												CHANNELS 3 Zrotation Xrotation Yrotation
												End site
												{
													OFFSET 0.00000 0.00000 0.00000
												}
											}
										}
									}
									JOINT LeftHandRing1
									{
										OFFSET 12.69180 0.00000 -3.06433
										CHANNELS 3 Zrotation Xrotation Yrotation
										JOINT LeftHandRing2
										{
											OFFSET 5.62556 0.00000 0.00000
											CHANNELS 3 Zrotation Xrotation Yrotation
											JOINT LeftHandRing3
											{
												OFFSET 3.56744 0.00000 0.00000
												CHANNELS 3 Zrotation Xrotation Yrotation
												End site
												{
													OFFSET 0.00000 0.00000 0.00000
												}
											}
										}
									}
									JOINT LeftHandPinky1
									{
										OFFSET 11.11390 0.00000 -6.03719
										CHANNELS 3 Zrotation Xrotation Yrotation
										JOINT LeftHandPinky2
										{
											OFFSET 4.52789 0.00000 0.00000
											CHANNELS 3 Zrotation Xrotation Yrotation
											JOINT LeftHandPinky3
											{
												OFFSET 2.46976 0.00000 0.00000
												CHANNELS 3 Zrotation Xrotation Yrotation
												End site
												{
													OFFSET 0.00000 0.00000 0.00000
												}
											}
										}
									}
								}
							}
						}
					}
					JOINT pCube4
					{
						OFFSET 0.00000 10.91090 1.10792
						CHANNELS 3 Zrotation Xrotation Yrotation
						End site
						{
							OFFSET 0.00000 0.00000 0.00000
						}
					}
				}
			}
		}
	}
	JOINT RightUpLeg
	{
		OFFSET -9.98441 0.00000 0.00000
		CHANNELS 3 Zrotation Xrotation Yrotation
		JOINT RightLeg
		{
			OFFSET 0.00000 -42.11790 0.00000
			CHANNELS 3 Zrotation Xrotation Yrotation
			JOINT RightFoot
			{
				OFFSET 0.00000 -45.00020 -0.00001
				CHANNELS 3 Zrotation Xrotation Yrotation
				JOINT RightForeFoot
				{
					OFFSET 0.00000 -3.74820 0.00000
					CHANNELS 3 Zrotation Xrotation Yrotation
					JOINT RightToeBase
					{
						OFFSET 0.00000 0.06325 14.43120
						CHANNELS 3 Zrotation Xrotation Yrotation
						End site
						{
							OFFSET 0.00000 0.00000 0.00000
						}
					}
				}
			}
		}
	}
	JOINT LeftUpLeg
	{
		OFFSET 9.98441 0.00000 0.00000
		CHANNELS 3 Zrotation Xrotation Yrotation
		JOINT LeftLeg
		{
			OFFSET 0.00000 -42.11800 0.00000
			CHANNELS 3 Zrotation Xrotation Yrotation
			JOINT LeftFoot
			{
				OFFSET 0.00000 -45.00070 0.00000
				CHANNELS 3 Zrotation Xrotation Yrotation
				JOINT LeftForeFoot
				{
					OFFSET 0.00000 -3.74824 0.00000
					CHANNELS 3 Zrotation Xrotation Yrotation
					JOINT LeftToeBase
					{
						OFFSET 0.00000 0.06325 14.43110
						CHANNELS 3 Zrotation Xrotation Yrotation
						End site
						{
							OFFSET 0.00000 0.00000 0.00000
						}
					}
				}
			}
		}
	}
}
MOTION
Frames: 4
Frame Time: 0.050000
-0.02356598580073 0.04012010688999704 -0.03659265657744286 -0.02636460709733094 -0.04711552808222891 0.020860279478622682 -2.6217704409909133 1.1720840950188012 -0.702873646495423 -0.97971247692583 3.6463412266944863 0.35568054401179405 -1.1565022198679185 -2.02925016457399 -1.0004685239386024 -0.5452577382927958 0.18389027165881072 -0.7707919102831103 -0.6743837498797088 13.616525503069495 1.3248512976660016 -0.29161091801363487 0.6745889368913762 0.9908468982634013 -0.7199360388250968 -13.791846179759569 0.19152958905705814 -7.080109131521552 2.4148780884739605 -12.727294572344288 63.952209787412414 5.406027098935996 24.49876623545447 17.57671766030439 -4.361019118737891 75.14290969069556 17.527205074744423 -0.3517875112579176 -3.5523604154373385 4.506553964624846 -0.10126414387012218 -1.5682178077366287 0.04905632953449364 -0.04712898829382881 -56.19252393749083 0.0014727356407106857 0.016705208114953927 -56.26061048601039 -38.78149831424502 0.009384526460561845 -0.0062574546911509255 -0.006334345172187733 -0.00509524009501941 0.010859041876605526 -0.04726458848392925 -0.0381387435505597 0.0050359256038393675 -36.674349011565695 -0.023287203993830937 -0.048043024311107255 0.03800484347239274 0.04206592589014217 0.008701307067487613 0.00614497188990052 -0.020057317809333192 -0.012306699665615687 -19.743891739629305 0.008756693334164393 0.007920472768387593 0.027993729332864106 -0.009589966461120758 -0.038220757513120505 0.027181509118901694 -0.026389971794711264 0.03090201857510092 24.0072036525543 -0.01386449536995511 -0.022944857259462676 28.88737268798973 -0.03331361921792937 0.04871364189417649 28.892382044344554 0.03974616246410348 -0.0003931856974714231 8.890365377240824 1.9219213644399906 12.007799261135796 -63.65512151316848 13.924969872666182 -24.163272283682 -38.111140721222576 3.3724387378176877 -77.84553878990863 -13.068897821330298 -0.2153598348844182 1.126976346130006 -0.46525470283158415 0.08411297274437719 -8.172202499241227 0.01934936645644039 -0.013191685610763384 44.592320058110474 0.026069748863838983 -0.020162514463953726 44.59445991377641 12.476041901836767 0.005046499560033432 -0.016124127997477665 -0.028557045727292167 -0.03921211137459302 0.03231185883238017 -0.034247464779736905 0.03674069346259693 0.016957767772033023 11.069517987429897 -0.004087273704236979 0.008542329025565927 0.006679242809819899 -0.006455062973269952 0.023968534324066218 -0.005949834059050746 0.04703380902775056 -0.01956031149017826 4.757985100462433 0.004159819207330408 -0.005454861691244515 0.012440809387511234 0.0031863242372145903 -0.03986954822860825 -0.021168422812808962 -0.022497582781730883 -0.03516789624450909 -5.565291337984831 -0.0258477192717023 0.004352015030707442 -6.695276661620022 0.03815408974516174 0.009362664411764393 -6.741209994757755 0.024081545276999232 0.006091326906001219 0.028525594436665386 -0.0026625510765094064 -0.03406167624864618 8.042643502201658 3.463388688655837 -19.23372743564237 0.003208993672957277 10.391194015815865 0.04847482419171585 -5.5930546028526775 -15.639986716613416 3.181828030412134 0.042865481818824734 0.02849341908816998 0.02984862517977129 -0.01630190240848187 4.734640714549665 0.0003567877674333301 12.448958598619633 -8.279248302790238 6.907111637013053 -0.00795413389708147 46.36564191704772 -0.026514998050941416 -4.292567175547842 -14.762882580102897 -3.873716444118552 0.022856533033276633 0.020825062612189475 0.013397247688850901 0.007370605883773944 -10.777012862833923 0.0016485677594459823 
-0.03175554122843473 -0.046967588843908364 -0.02826549469597253 -0.012078444818179549 -0.014569239629556904 0.0077881910693698465 -2.734994237449345 1.198192478137568 -0.6946374914494179 -1.0039592042896155 3.6517800365811617 0.3378773758351795 -1.1910074754649274 -1.9596420930512293 -1.0346332370153986 -0.48463444235761954 0.258938003441565 -0.8491572790652727 -0.712015302594585 13.430468933889157 1.4069988560594593 -0.31723995376585934 0.4930236512452296 0.971362687498242 -0.7279366605221013 -13.99753299450822 0.13121057076710624 -6.888796184339096 2.3011516907142084 -12.749598102221567 63.69293892538897 6.373113420103799 23.350184756153777 19.012009240888045 -5.406407596768578 72.64816327784823 17.84771176999582 -0.35115842670605585 -3.44989233879697 4.531308924803394 -0.08956207803125138 -1.6112468101164243 -0.038428916949222645 0.048211723075480176 -56.20745457237717 -0.011889121489251276 0.04012885722589508 -56.246738822840975 -38.7733321424052 -0.02945529277714361 -0.013907914242759627 -0.006952385567851362 -0.04990848065324368 0.026629692653104296 -0.0015253094225991459 -0.0031659588023436364 0.005190219430083508 -36.6658620724622 -0.020046376976268033 -0.04722193844918616 -0.008402275113291361 0.030087243353440516 -0.04997412472633361 0.023320730478911107 -0.004318690263380861 0.036069616750869685 -19.769432032475 -0.0014226834923224986 0.0378334650535186 -0.03312175467257365 0.03692382889995721 0.01666941354710393 -0.008929904795341297 -0.016484370831022905 0.04432980262145331 24.0827551345321 -0.039747346676137635 0.024416929723721535 28.834587942979645 -0.03734655867731316 0.04133950434090326 28.89203526988432 -0.043689166994609466 -0.024771621104980216 8.490436214556397 1.853116280918533 11.987960773847325 -64.14929331312328 14.34401440993128 -22.655026530288072 -42.82403324386787 4.599330182541339 -76.54116849801946 -13.01287122107048 0.4627966475343227 0.7169000650147576 -0.5120981375522246 0.03634954186124908 -8.096682381354967 -0.006556779934431252 0.020478274673991586 44.59676578050821 0.01569290355927516 0.003574764839958073 44.5515359693995 12.41312993047774 -0.014429664237212952 0.021296640879659108 -0.010879458414760658 -0.0411901683659831 0.026868224681628142 -0.00539568908853894 0.035322571782075284 -0.012536931080846761 11.14696673202548 0.024437985062588756 -0.040273776522615996 -0.002073000931355134 0.0010444419066608724 -0.01299567763863546 -0.028267005164203607 0.0009830205068472988 -0.03688164075755465 4.791728340698573 0.006302702298639613 -0.040763467381297366 -0.04084826865910752 0.011573891069818458 -0.03698682652043658 0.03493820303485894 -0.038609520665435944 -0.028846280925879278 -5.58412077532158 -0.01072608856343219 0.035617896126967995 -6.743821659468083 0.010081498760391914 0.02576609141151653 -6.737274289115978 0.018274780598535253 0.007084470252194519 -0.0230489708295568 -0.043145630253746715 -0.03570606669393089 8.068624080748114 3.543032740634856 -19.243460578205188 -0.023999537595345004 10.424339819127036 -0.0034693732597455666 -5.589268083797449 -15.637983101683108 3.2147629666287663 0.030316808939380185 0.04039742260466329 0.0006820112246430326 0.00016834865406639165 4.675796182617197 0.011669264273374442 12.489990439909864 -8.232881290570178 6.853577159509819 -0.016219873722728845 46.34848623887666 -0.002014427662858983 -4.290470435940406 -14.730856132881325 -3.7871656304131567 0.026355134464062832 -0.047200661578672774 0.0304588200120616 -0.0314862842472345 -10.716886613403387 -0.007584224448685546 
0.0005642504538292597 -0.044317001422152794 0.010317750143527416 -0.03941599886731581 -0.007982139621501311 0.02670160826386693 -2.7440515566021957 1.3296456792286704 -0.7209117346806196 -1.0323945334199345 3.686427634993284 0.37030248856051545 -1.2347941814473364 -1.931264573511819 -1.047104624398853 -0.3589168329641337 0.29761553925549766 -0.8668336843598724 -0.6109343713810099 13.201449436459717 1.2663785567796355 -0.3669605719372342 0.3144140585925377 0.5686232529353575 -0.7116549577452844 -14.29812551002627 0.1276061787921908 -6.592727599288395 2.261300060757118 -12.902546357615266 63.4936814293918 7.133013664349376 21.711093287373103 21.636868495508782 -6.135941264243791 69.85381527875012 18.25582926784576 -0.34691403198202014 -3.5629149157750857 4.520165071605998 -0.13479425147585972 -1.6084529856176837 0.005780451281338337 -0.038672871134079106 -56.2461138771639 0.02392730460669765 -0.007814644143755482 -56.20335630296913 -38.816962511608224 0.002928578518833017 -0.039774392751118735 0.007027891573021674 -0.031043754426112433 -0.007178008914616297 0.005431301454807227 0.02266728021662068 0.013249275487322361 -36.70899919533075 0.009695092556172962 -0.02023291548204083 0.024965847581985973 -0.019244917735485256 -0.026011827242670107 -0.00729701856315153 0.026632769759379105 0.01722646758366139 -19.760405039120176 -0.025324794718777206 -0.01582665047407635 -0.020167800173182072 0.023873003413836014 -0.018959934068265467 -0.019014963117219293 -0.03978144389151749 0.04679635459706404 24.084468086357752 0.001875708629402874 -0.003861553402713068 28.87110380305893 0.026565730753723565 0.04457653097293691 28.87388089440494 0.02224959298951212 0.005278570847819645 8.0221157681054 1.7142983409395056 11.98356383679042 -64.6350954661018 14.832661152734154 -20.282901268733816 -46.20202047791497 4.881736181688666 -74.44512332890108 -12.883066064958953 1.2244810683429463 0.29043943965160884 -0.4929950781297335 0.10096070028520727 -8.168686365465504 0.009128827759555251 -0.011987473818568867 44.55876829691356 0.04420856780716766 -0.038438642298878334 44.58535254191962 12.458821283172904 0.03195077534833929 0.04184447897970912 0.005304351768010413 0.006364099428940218 -0.006497049069227283 0.02978455234323289 0.007037833258851039 0.017115138634630645 11.118857395902063 -0.005450066203363 -0.018823945593682674 -0.02098896692994192 -0.018246555190014543 0.009054451258415655 0.03948863076027734 -0.010269896478551555 -0.006144790460118341 4.809093366800096 -0.0026330932260468214 0.006225615613522488 0.025663273267090714 -0.039521292717327294 -0.002293979683189939 -0.008193684327988329 -0.0420462960195351 0.030090354506647918 -5.608988847410736 -0.04558137341191766 0.015475426026273728 -6.695987997191521 -0.022996083602881315 0.040961413234490984 -6.745010840933157 -0.012893764985473217 0.03914318485258432 -0.025038919858985043 0.0006088507866742237 -0.049093610195288066 8.04725458129587 3.518125160497956 -19.19255690700189 -0.022096731599701182 10.349957749813404 0.023035157212936423 -5.657191189506485 -15.61582693965878 3.2246552048517834 -0.0016622993216279607 -0.04826204099723484 0.012722281770997641 -0.03351775632912044 4.695279379582966 0.03914828455890044 12.41491600557967 -8.26364692564425 6.855520331347556 -0.04952986149294818 46.41443935625062 0.011555864323757553 -4.3308243190723665 -14.720171291063993 -3.8023817721540327 -0.02034916253458922 0.009981381018395576 -0.004651225981100236 -0.015820160190166292 -10.69693410787823 0.043110706539141785 
-0.0450904080181158 0.0022693399619612346 -0.02178340460630756 -0.00316012689408666 -0.028426417193016924 -0.031209628227960598 -2.7829032498344155 1.5141601887037466 -0.6514311219181468 -1.046601158714888 3.7365683814812254 0.40587300681815197 -1.2381985969103726 -1.896463990457869 -0.9216232585880508 -0.2498591336965351 0.30765359746394855 -0.811788908152405 -0.4524941185297335 13.031494030434569 0.9681253082064056 -0.3449559334858871 0.14939937344755774 -0.31539460915785156 -0.582194439648286 -14.553014153640111 0.007985096009063785 -6.421639888114269 2.1396670470394823 -13.00526218517677 63.477261804552676 7.610032795371509 20.30476268280202 23.91835394411681 -6.801733361278276 67.49771924428633 18.311606864292514 -0.25699947268066997 -3.471206282771825 4.564977689286288 -0.12938935079395336 -1.573056944330801 -0.00032011209346410804 -0.016097737226953776 -56.267563666332705 -0.04410587170402154 -0.006607845000089997 -56.19922102686611 -38.79765408595835 -0.035793553530411026 -0.02869802529210852 -0.001557897693544552 -0.02710116204643691 0.020896702925604 0.0026051180851753802 0.023580820067897648 0.010768383068076337 -36.671863828846256 -0.0047351002032091786 0.010190522870309485 0.0082596003729791 -0.027178936218576238 0.026152201581680783 -0.018150283177517604 -0.007105448537689297 0.03815010123913294 -19.791657488949063 -0.036116221034289964 0.004237995962272338 -0.016167283293192693 0.033572028492740914 0.03600563198933985 0.035117824690834354 -0.007280849169054146 -0.03310945448836397 24.010787880701844 0.00824150987498932 0.014521951480853817 28.883168077683795 -0.0040679366966743236 0.021814823962110763 28.864889449920902 0.03454804735811657 0.017392399959292346 7.352720395104818 1.5803985900497584 11.953199301632662 -65.17076148953244 15.698617851085578 -17.378476917397442 -45.52298556265385 3.817251844591826 -70.66070518553913 -12.549474030425563 1.79787254366004 -0.08798620931302112 -0.45018347940556663 0.0862483204010547 -8.142228746415759 0.028783662724001586 0.013527194744218514 44.561963911531684 0.00810180092329722 -0.0349282360678114 44.57503952840105 12.424782559957553 0.045553079607389066 0.005979924795842866 -0.008298826609351998 0.04309985682310754 0.007176522996408003 0.0005390696070176045 0.004039805365987727 -0.029041747602625533 11.11742178907809 -0.012129086673159742 0.004808642372053183 -0.029707268590007527 0.0007053904514545813 -0.04383342480131972 -0.0211197053380514 -0.012630117895193294 -0.020083323799320884 4.814491651060676 0.006945442854808463 -0.031008214471006497 0.028439948777757466 0.009243992812615079 0.049012951646854826 0.01983578684883138 -0.022386272220425663 -0.033684228534825694 -5.598727370854632 0.026743942829682503 0.049155280278123714 -6.674455780658751 -0.03498943928365531 0.027597971051705843 -6.694093172193345 -0.018925510909039985 -0.01738982231787017 -0.013775636268069193 0.016380644106986184 -0.024447706720690333 8.068095925617829 3.4550709669718747 -19.188883921083434 -0.02381136193219501 10.352255136300025 -0.02203559477089379 -5.584506760442941 -15.66524160643815 3.1459170244566823 0.03072526488934186 0.03536129416885234 -0.04783024800980647 -0.030105270994093263 4.651223752769228 0.03465969014482784 12.432194949280287 -8.192059591191162 6.864983026237274 0.040551868684322964 46.40233040248368 -0.02344199459196895 -4.335359723382429 -14.73062944885339 -3.8790878229724206 -0.005570119498705072 -0.047880700314971915 0.003428847570179159 -0.004284785907073635 -10.726444658234694 -0.005384328439460826 
